<svg id="svg" version="1.1" xmlns="http://www.w3.org/2000/svg" xmlns:xlink="http://www.w3.org/1999/xlink" width="400" height="390.1234567901235" viewBox="0, 0, 400,390.1234567901235"><g id="svgg"><path id="path0" d="M284.361 52.730 C 283.970 52.958,282.916 53.875,282.020 54.767 C 281.124 55.660,279.863 56.857,279.220 57.428 C 278.576 57.999,277.591 58.965,277.031 59.575 C 276.471 60.184,274.475 62.088,272.595 63.805 C 263.151 72.430,262.389 74.118,266.043 78.322 C 266.453 78.794,267.029 79.906,267.322 80.794 C 267.647 81.782,268.736 83.309,270.122 84.727 C 271.370 86.001,272.390 87.232,272.390 87.462 C 272.390 87.692,273.326 88.961,274.470 90.281 C 275.614 91.602,276.803 93.060,277.112 93.520 C 277.932 94.740,282.069 99.326,284.047 101.207 C 284.986 102.099,286.742 103.764,287.950 104.907 C 289.158 106.049,290.937 107.442,291.902 108.001 C 292.868 108.560,294.539 109.835,295.615 110.834 C 296.956 112.078,298.279 112.872,299.822 113.358 C 301.060 113.747,302.167 114.216,302.280 114.400 C 302.394 114.584,302.959 114.618,303.536 114.476 C 305.361 114.027,306.988 112.674,314.497 105.366 C 315.930 103.971,317.886 102.105,318.844 101.220 C 322.760 97.602,323.248 96.230,321.268 94.403 C 320.678 93.859,319.756 92.825,319.220 92.106 C 318.683 91.387,317.629 90.152,316.878 89.361 C 316.127 88.570,314.898 87.010,314.146 85.894 C 313.395 84.777,312.166 83.190,311.415 82.366 C 309.544 80.314,309.258 79.930,308.471 78.402 C 308.094 77.671,307.464 76.846,307.071 76.568 C 306.677 76.290,305.803 75.260,305.128 74.280 C 304.453 73.299,303.089 71.655,302.097 70.626 C 296.194 64.506,295.051 63.265,294.019 61.854 C 293.392 60.995,292.576 60.067,292.207 59.791 C 291.571 59.316,289.119 55.929,288.129 54.158 C 287.789 53.550,285.599 52.198,285.126 52.305 C 285.097 52.311,284.753 52.503,284.361 52.730 M283.597 198.515 C 283.214 198.615,282.072 199.487,281.060 200.453 C 278.660 202.745,274.477 204.878,272.384 204.878 C 270.618 204.878,268.309 205.905,267.122 207.220 C 264.843 209.743,260.255 210.669,257.459 209.171 C 252.247 206.377,246.634 210.903,246.634 217.899 C 246.634 219.733,245.803 221.364,244.335 222.409 C 242.917 223.419,239.475 228.065,238.919 229.721 C 238.279 231.624,239.026 233.804,241.151 236.232 C 243.583 239.012,244.168 241.035,243.502 244.370 C 242.170 251.034,242.481 252.338,246.281 256.001 C 247.728 257.397,248.999 258.978,249.106 259.514 C 249.212 260.049,249.511 261.541,249.769 262.829 C 250.680 267.372,252.599 270.180,255.852 271.734 C 261.120 274.252,261.513 280.203,256.821 286.412 C 255.940 287.578,255.220 288.736,255.220 288.985 C 255.220 289.235,254.350 290.433,253.288 291.647 C 252.226 292.861,250.865 294.511,250.264 295.315 C 249.663 296.118,248.776 297.179,248.293 297.674 C 247.810 298.168,247.415 298.740,247.415 298.945 C 247.415 299.149,247.195 299.318,246.927 299.319 C 246.659 299.321,245.474 300.211,244.295 301.298 C 241.900 303.504,240.674 304.173,237.925 304.774 C 236.479 305.091,235.599 305.632,234.110 307.121 C 231.873 309.358,231.070 309.854,229.684 309.854 C 229.044 309.854,228.683 310.070,228.683 310.453 C 228.683 310.924,228.522 310.966,227.928 310.648 C 226.617 309.946,226.088 310.200,225.623 311.753 C 224.551 315.328,225.279 317.783,227.945 319.587 C 229.037 320.326,230.082 321.330,230.268 321.820 C 230.454 322.309,231.186 322.952,231.895 323.248 C 232.603 323.544,233.748 324.471,234.438 325.308 C 235.616 326.735,236.336 327.521,237.405 328.548 C 239.331 330.399,240.000 331.185,240.000 331.597 C 240.000 331.860,240.938 332.519,242.085 333.061 C 243.232 333.604,244.489 334.399,244.878 334.829 C 246.636 336.772,248.069 335.611,248.542 331.858 C 249.023 328.042,250.035 325.868,252.227 323.944 C 252.620 323.599,253.294 322.615,253.725 321.756 C 254.551 320.109,257.018 317.659,257.849 317.659 C 258.120 317.659,258.342 317.263,258.343 316.780 C 258.344 315.855,259.680 313.375,260.189 313.353 C 260.354 313.345,261.629 312.277,263.024 310.978 C 264.420 309.680,266.088 308.348,266.732 308.019 C 267.376 307.690,268.254 307.114,268.683 306.738 C 269.112 306.362,270.868 305.300,272.585 304.378 C 274.302 303.456,276.251 302.292,276.915 301.790 C 279.078 300.156,282.053 300.520,287.456 303.078 C 288.981 303.800,290.686 304.390,291.246 304.390 C 292.222 304.390,295.488 305.440,297.951 306.545 C 299.314 307.157,301.056 308.932,302.729 311.415 C 306.501 317.010,312.007 319.475,315.410 317.091 C 317.057 315.937,320.079 316.293,321.767 317.839 C 326.785 322.435,333.263 322.296,336.459 317.525 C 339.395 313.141,340.728 311.741,342.924 310.736 C 345.522 309.546,349.268 305.287,349.268 303.523 C 349.268 302.914,348.737 300.804,348.088 298.834 C 346.435 293.818,346.616 293.461,355.172 284.921 C 360.214 279.887,360.428 279.276,358.805 274.574 C 357.629 271.170,357.650 268.620,358.864 267.279 C 360.972 264.949,359.803 259.645,356.687 257.406 C 353.901 255.405,352.972 253.914,352.042 249.951 C 350.735 244.385,350.382 243.524,348.784 242.011 C 346.060 239.432,345.977 238.944,347.528 234.607 C 349.938 227.863,346.614 222.885,339.696 222.877 C 337.098 222.875,336.122 222.459,333.826 220.376 C 332.768 219.416,331.024 217.965,329.951 217.152 C 327.852 215.561,320.396 207.959,319.885 206.888 C 318.875 204.770,314.345 204.216,311.472 205.858 C 309.772 206.830,307.231 207.150,306.517 206.482 C 305.930 205.933,301.872 204.878,300.345 204.878 C 298.335 204.878,294.927 203.489,293.374 202.036 C 289.623 198.527,287.078 197.610,283.597 198.515 M196.323 205.498 C 195.159 205.811,193.966 206.411,193.671 206.832 C 192.863 207.986,190.064 209.745,188.160 210.295 C 187.024 210.623,185.758 211.481,184.312 212.904 C 180.202 216.950,175.422 215.281,172.498 208.780 C 170.457 204.240,165.951 206.250,165.232 212.023 C 165.093 213.137,164.393 215.171,163.677 216.543 L 162.373 219.037 163.684 220.348 C 164.405 221.069,165.271 221.659,165.608 221.659 C 166.792 221.659,170.357 223.508,171.902 224.924 C 172.761 225.711,174.042 226.638,174.749 226.986 C 175.455 227.333,176.678 228.428,177.466 229.418 C 178.254 230.409,179.647 231.922,180.561 232.780 C 182.245 234.361,183.162 235.894,186.632 242.927 C 188.912 247.550,190.120 248.426,192.000 246.822 C 193.238 245.767,195.388 244.799,197.073 244.540 C 200.957 243.942,202.549 242.585,202.531 239.889 C 202.522 238.711,199.496 235.707,198.316 235.707 C 197.013 235.707,194.732 232.161,194.732 230.133 C 194.732 227.712,197.075 224.000,198.603 224.000 C 198.818 224.000,199.184 223.254,199.416 222.341 C 200.026 219.943,200.573 219.006,202.480 217.096 C 204.529 215.045,205.268 212.886,205.268 208.958 L 205.268 206.138 203.941 205.508 C 202.318 204.738,199.166 204.734,196.323 205.498 " stroke="none" fill="#44753f" fill-rule="evenodd"></path><path id="path1" d="M241.366 84.689 C 230.258 85.909,225.618 87.802,220.293 93.288 C 218.576 95.057,216.583 97.049,215.864 97.715 C 215.145 98.382,213.389 100.068,211.962 101.463 C 209.951 103.428,208.794 104.211,206.829 104.935 C 201.065 107.060,198.509 108.718,197.561 110.944 C 196.975 112.321,196.924 114.203,197.463 114.537 C 197.678 114.669,197.854 115.103,197.854 115.500 C 197.854 117.017,199.825 119.318,201.705 119.995 C 202.699 120.353,203.934 120.852,204.450 121.103 C 205.790 121.757,215.951 121.688,217.911 121.011 C 218.758 120.719,220.363 119.556,221.530 118.390 C 223.226 116.694,223.875 116.293,224.926 116.293 C 226.803 116.293,228.614 117.022,228.889 117.889 C 229.240 118.993,232.320 121.201,234.341 121.798 C 235.758 122.217,236.098 122.489,236.098 123.207 C 236.098 123.697,236.247 124.098,236.429 124.098 C 236.611 124.098,237.533 124.617,238.478 125.253 C 239.422 125.888,240.941 126.629,241.854 126.899 C 242.958 127.226,243.512 127.611,243.512 128.051 C 243.512 128.974,245.588 130.621,247.458 131.181 C 248.321 131.440,249.411 132.081,249.880 132.605 C 251.963 134.938,252.797 135.490,255.462 136.305 C 257.194 136.834,258.361 137.412,258.461 137.791 C 258.716 138.751,261.864 140.317,264.933 141.010 L 267.711 141.638 269.746 139.697 C 270.865 138.629,271.911 137.756,272.070 137.756 C 272.554 137.756,274.347 135.723,275.731 133.605 C 276.451 132.502,277.268 131.359,277.545 131.064 C 282.833 125.440,283.842 120.764,280.247 118.548 C 278.092 117.219,272.420 112.097,268.181 107.649 C 267.428 106.860,265.378 104.170,259.540 96.313 C 258.471 94.875,257.215 92.943,256.748 92.020 C 254.629 87.832,251.805 84.411,250.254 84.155 C 248.525 83.869,249.222 83.827,241.366 84.689 M186.167 146.421 C 184.325 147.333,181.463 150.011,181.463 150.824 C 181.463 151.091,181.068 151.812,180.585 152.426 C 179.417 153.911,179.227 168.711,180.351 170.656 C 181.772 173.116,184.963 175.220,187.273 175.220 C 189.580 175.220,190.737 175.868,193.603 178.768 C 195.396 180.582,196.585 181.459,197.506 181.644 C 200.383 182.226,202.849 184.056,203.494 186.089 C 204.646 189.719,215.380 187.432,219.947 182.582 C 220.829 181.645,221.995 180.527,222.536 180.098 C 227.319 176.304,224.454 166.050,218.324 165.020 C 215.688 164.577,215.450 164.454,214.875 163.248 C 214.535 162.535,214.078 161.951,213.860 161.951 C 213.642 161.951,213.463 161.676,213.463 161.340 C 213.463 158.617,207.834 155.466,203.662 155.853 C 200.711 156.128,200.858 156.261,200.403 152.906 C 200.267 151.901,199.813 150.644,199.395 150.112 C 198.976 149.580,198.634 148.975,198.634 148.767 C 198.634 146.467,189.533 144.754,186.167 146.421 M161.232 153.387 C 158.272 158.277,157.989 161.202,160.255 163.469 C 163.783 166.996,169.630 165.768,171.936 161.015 L 172.864 159.103 171.576 157.893 C 170.868 157.227,169.510 156.156,168.560 155.512 C 167.609 154.868,166.556 154.012,166.220 153.608 C 165.232 152.422,161.905 152.274,161.232 153.387 M167.510 203.740 C 165.483 206.123,164.171 208.670,163.509 211.512 C 162.886 214.185,161.475 217.335,160.245 218.797 C 159.730 219.409,159.032 220.572,158.693 221.383 C 158.172 222.629,157.668 223.042,155.429 224.054 C 153.972 224.713,151.544 225.836,150.032 226.549 C 148.521 227.263,146.765 227.974,146.130 228.129 C 142.870 228.925,141.150 231.049,142.204 232.976 C 142.498 233.512,143.289 235.034,143.962 236.357 C 144.636 237.680,145.948 239.612,146.878 240.650 C 147.808 241.688,148.859 243.099,149.212 243.787 C 149.566 244.475,150.572 245.613,151.447 246.317 C 152.322 247.020,153.379 248.343,153.795 249.256 C 154.211 250.169,155.057 251.492,155.675 252.196 C 158.274 255.156,156.799 257.213,152.006 257.313 C 149.722 257.361,149.396 257.263,148.217 256.168 C 146.514 254.586,145.235 253.819,142.744 252.882 C 140.839 252.165,140.154 251.699,137.315 249.183 C 136.751 248.682,135.873 248.057,135.364 247.793 C 134.855 247.529,133.561 246.384,132.488 245.248 C 128.143 240.649,125.525 241.465,117.490 249.926 C 115.866 251.636,114.009 253.571,113.364 254.225 C 108.470 259.189,108.115 262.810,112.046 267.688 C 113.077 268.968,114.358 270.877,114.892 271.930 C 115.425 272.984,116.530 274.560,117.346 275.433 C 118.162 276.306,119.268 277.758,119.805 278.659 C 120.341 279.559,121.439 280.736,122.244 281.274 C 124.849 283.012,126.070 288.465,124.236 290.165 C 122.691 291.597,121.132 291.425,118.613 289.546 C 117.451 288.678,116.059 287.872,115.519 287.754 C 113.383 287.288,112.094 286.780,111.381 286.126 C 110.970 285.750,110.020 285.016,109.268 284.496 C 108.517 283.976,107.815 283.434,107.707 283.293 C 107.600 283.151,106.985 282.763,106.341 282.430 C 105.698 282.096,104.360 280.972,103.369 279.932 C 102.378 278.892,101.061 277.800,100.442 277.505 C 97.652 276.175,97.580 276.159,96.603 276.604 C 96.072 276.846,95.214 277.709,94.695 278.522 C 94.176 279.335,93.267 280.439,92.675 280.976 C 91.406 282.125,89.366 285.192,89.366 285.951 C 89.366 286.243,88.668 287.509,87.815 288.765 C 86.962 290.021,85.631 292.382,84.858 294.012 C 84.084 295.642,83.308 296.976,83.132 296.976 C 82.764 296.976,80.732 301.115,79.970 303.415 C 79.686 304.273,79.036 305.553,78.525 306.259 C 77.266 307.998,75.570 311.924,74.950 314.537 C 74.670 315.717,73.773 318.000,72.958 319.610 C 70.753 323.963,70.244 325.906,70.244 329.973 C 70.244 337.761,72.654 339.478,79.876 336.835 C 81.554 336.220,84.156 335.497,85.659 335.226 C 89.765 334.487,91.902 333.733,94.019 332.276 C 95.123 331.517,96.981 330.716,98.406 330.385 C 105.407 328.761,109.117 324.484,106.920 320.572 C 105.703 318.407,104.836 317.110,104.319 316.683 C 104.059 316.468,103.370 315.327,102.789 314.146 C 102.207 312.966,101.017 310.946,100.145 309.659 C 98.771 307.630,98.539 306.978,98.413 304.780 C 98.018 297.914,103.286 298.537,111.478 306.325 C 113.079 307.848,115.125 309.546,116.024 310.098 C 116.923 310.651,118.098 311.575,118.634 312.152 C 122.004 315.775,125.256 315.900,130.182 312.593 C 132.094 311.310,133.929 310.256,134.259 310.252 C 134.589 310.248,136.023 309.234,137.444 308.000 C 138.866 306.766,141.548 304.527,143.404 303.024 C 151.142 296.762,151.940 295.131,148.591 292.425 C 148.103 292.030,147.400 291.234,147.028 290.657 C 146.657 290.079,145.631 288.849,144.748 287.925 C 143.865 287.000,142.787 285.541,142.352 284.683 C 141.917 283.824,140.826 282.244,139.928 281.171 C 138.229 279.141,137.777 278.198,136.942 274.927 C 136.668 273.854,136.125 272.400,135.734 271.695 C 133.068 266.888,139.737 264.655,143.877 268.969 C 146.674 271.883,149.999 274.968,151.604 276.136 C 152.459 276.759,153.560 277.736,154.049 278.307 C 155.277 279.741,161.846 282.927,163.576 282.927 C 164.582 282.927,172.090 275.092,172.100 274.032 C 172.101 273.880,173.051 272.756,174.209 271.534 C 175.382 270.296,176.520 268.653,176.777 267.826 C 177.408 265.794,178.290 263.883,178.718 263.618 C 179.454 263.163,181.409 259.257,181.651 257.756 C 181.790 256.898,182.164 255.465,182.483 254.572 C 183.065 252.939,183.276 252.779,186.927 251.186 C 189.672 249.988,192.493 246.455,190.113 247.195 C 189.060 247.522,188.658 247.029,186.632 242.925 C 183.157 235.886,182.245 234.361,180.561 232.780 C 179.647 231.922,178.254 230.409,177.466 229.418 C 176.678 228.428,175.455 227.333,174.749 226.986 C 174.042 226.638,172.761 225.711,171.902 224.924 C 170.357 223.508,166.792 221.659,165.608 221.659 C 165.271 221.659,164.405 221.069,163.684 220.348 L 162.373 219.037 163.677 216.543 C 164.393 215.171,165.093 213.137,165.232 212.023 C 165.951 206.250,170.457 204.240,172.498 208.780 C 175.422 215.281,180.202 216.950,184.312 212.904 C 185.758 211.481,187.024 210.623,188.160 210.295 C 190.062 209.745,192.863 207.987,193.669 206.836 C 194.832 205.175,201.439 204.321,203.941 205.508 L 205.268 206.138 205.268 208.958 C 205.268 212.886,204.529 215.045,202.480 217.096 C 200.573 219.006,200.026 219.943,199.416 222.341 C 199.184 223.254,198.818 224.000,198.603 224.000 C 197.075 224.000,194.732 227.712,194.732 230.133 C 194.732 232.161,197.013 235.707,198.316 235.707 C 199.496 235.707,202.522 238.711,202.531 239.889 C 202.549 242.538,200.972 243.919,197.268 244.497 C 195.500 244.773,192.615 246.089,191.906 246.942 C 190.609 248.505,199.632 246.157,202.496 244.187 C 208.852 239.813,208.815 238.569,202.243 235.655 C 198.339 233.925,197.704 233.529,197.011 232.392 C 195.643 230.150,196.015 228.680,198.652 225.901 C 199.950 224.534,201.479 222.449,202.049 221.268 C 202.619 220.088,203.736 218.244,204.532 217.171 C 206.037 215.140,206.580 213.574,207.038 209.951 C 207.187 208.771,207.471 207.497,207.669 207.120 C 208.210 206.092,207.391 203.539,206.345 202.991 C 204.059 201.793,195.337 203.593,192.192 205.912 C 191.547 206.388,190.109 207.199,188.997 207.714 C 186.854 208.707,184.210 210.541,183.685 211.399 C 181.526 214.925,176.822 214.022,175.125 209.756 C 173.550 205.798,171.682 202.146,171.229 202.141 C 170.956 202.138,170.380 202.058,169.951 201.962 C 169.384 201.836,168.718 202.321,167.510 203.740 " stroke="none" fill="#e4a064" fill-rule="evenodd"></path><path id="path2" d="M0.000 195.122 L 0.000 390.244 200.000 390.244 L 400.000 390.244 400.000 195.122 L 400.000 0.000 200.000 0.000 L 0.000 0.000 0.000 195.122 M289.659 48.059 C 290.464 48.465,291.577 49.517,292.134 50.399 C 292.691 51.281,293.877 52.726,294.769 53.611 C 295.662 54.496,296.853 55.834,297.417 56.585 C 297.980 57.337,299.252 58.819,300.245 59.880 C 301.237 60.941,302.049 61.925,302.049 62.067 C 302.049 62.307,302.574 62.938,305.005 65.619 C 305.521 66.187,306.971 68.031,308.228 69.716 C 309.485 71.402,310.892 73.115,311.354 73.524 C 311.817 73.933,312.195 74.424,312.195 74.615 C 312.195 74.806,312.644 75.437,313.193 76.018 C 315.710 78.680,316.411 79.481,317.018 80.390 C 317.376 80.927,318.553 82.332,319.634 83.512 C 324.234 88.539,326.601 91.377,326.852 92.168 C 326.999 92.633,327.450 93.367,327.853 93.800 C 330.677 96.832,328.082 100.901,316.246 112.000 C 307.971 119.759,308.474 119.471,301.672 120.352 C 299.233 120.668,297.236 121.171,296.146 121.746 C 294.969 122.366,293.348 122.747,290.927 122.971 C 287.106 123.326,286.025 124.038,283.902 127.601 C 281.966 130.852,281.347 131.722,279.904 133.225 C 279.056 134.107,277.880 135.567,277.289 136.469 C 276.698 137.370,275.786 138.389,275.263 138.732 C 274.739 139.075,274.020 139.965,273.665 140.709 L 273.019 142.063 277.038 145.955 C 283.376 152.092,283.473 155.223,277.520 161.610 C 275.450 163.831,272.313 164.617,267.460 164.130 C 264.145 163.798,262.634 165.326,262.634 169.014 C 262.634 174.561,259.402 177.888,252.779 179.161 C 250.238 179.650,248.594 180.556,247.144 182.268 C 245.671 184.008,239.979 186.613,236.973 186.923 C 233.700 187.260,233.044 187.536,229.703 189.981 C 225.584 192.995,221.551 193.541,217.588 191.623 C 215.633 190.677,214.261 190.632,211.254 191.415 C 206.936 192.539,203.751 191.937,202.456 189.750 C 201.812 188.661,200.876 187.494,199.255 185.756 C 198.754 185.220,197.209 184.380,195.821 183.890 C 193.770 183.166,192.964 182.612,191.507 180.924 C 189.715 178.849,189.714 178.849,186.859 178.584 C 181.834 178.117,178.549 175.641,177.313 171.388 C 176.461 168.459,174.842 166.684,173.602 167.320 C 169.484 169.431,159.965 168.969,158.279 166.577 C 155.285 162.328,154.724 160.328,155.892 158.070 C 157.825 154.331,156.838 150.878,153.235 148.770 C 148.452 145.973,147.451 141.957,150.831 139.124 C 155.214 135.449,161.645 128.498,163.113 125.849 C 163.587 124.993,164.474 123.766,165.086 123.122 C 165.697 122.478,166.834 120.658,167.614 119.078 C 168.393 117.497,169.720 115.193,170.564 113.957 C 171.407 112.721,172.098 111.545,172.098 111.344 C 172.098 109.346,177.560 99.425,179.029 98.756 C 181.318 97.713,193.002 98.991,200.195 101.070 C 205.609 102.636,207.400 101.795,215.036 94.102 C 221.155 87.939,221.194 87.904,224.390 85.809 C 227.132 84.011,228.279 83.681,233.756 83.113 C 236.224 82.856,239.385 82.399,240.780 82.095 C 242.176 81.792,245.249 81.182,247.610 80.741 C 254.870 79.383,256.780 78.052,256.780 74.352 C 256.780 72.436,257.558 70.603,259.061 68.979 C 259.808 68.172,260.722 67.013,261.093 66.403 C 261.464 65.793,262.611 64.607,263.641 63.769 C 264.672 62.930,266.316 61.514,267.294 60.621 C 269.314 58.780,274.068 54.715,276.683 52.596 C 277.649 51.813,279.387 50.292,280.546 49.216 C 283.290 46.668,286.171 46.303,289.659 48.059 M143.813 66.738 C 144.754 67.385,146.278 68.266,147.201 68.697 C 148.123 69.128,150.107 70.344,151.610 71.399 C 153.112 72.454,154.635 73.328,154.993 73.342 C 155.351 73.355,156.668 74.243,157.920 75.314 C 159.171 76.386,160.810 77.536,161.561 77.870 C 166.236 79.950,171.317 84.611,171.317 86.820 C 171.317 88.370,170.033 93.014,169.373 93.854 C 169.204 94.068,168.948 94.794,168.804 95.467 C 168.661 96.140,167.856 97.748,167.015 99.041 C 165.532 101.324,164.415 103.542,163.534 105.955 C 163.298 106.600,162.620 107.654,162.028 108.296 C 160.399 110.061,159.377 111.652,158.872 113.212 C 158.621 113.985,157.842 115.302,157.141 116.138 C 156.440 116.974,155.321 118.537,154.655 119.610 C 153.139 122.051,150.159 125.568,146.244 129.535 C 144.580 131.221,143.220 132.783,143.220 133.005 C 143.220 133.228,142.902 133.512,142.514 133.635 C 142.126 133.758,141.029 134.660,140.075 135.640 C 139.122 136.620,138.038 137.725,137.668 138.097 C 135.725 140.046,130.582 140.910,128.092 139.707 C 127.204 139.278,126.319 138.927,126.127 138.927 C 125.935 138.927,124.917 138.137,123.864 137.172 C 122.812 136.208,121.148 135.011,120.167 134.513 C 118.673 133.756,115.847 131.858,115.122 131.124 C 114.867 130.866,113.287 129.960,111.757 129.195 C 111.086 128.860,109.692 127.825,108.657 126.895 C 107.623 125.966,105.937 124.780,104.910 124.259 C 100.113 121.829,100.363 116.468,105.571 110.049 C 106.529 108.868,107.597 107.333,107.944 106.637 C 108.291 105.940,109.239 104.686,110.051 103.849 C 110.863 103.012,112.024 101.474,112.631 100.432 C 113.576 98.807,114.765 97.095,116.806 94.418 C 117.060 94.085,117.605 93.206,118.016 92.467 C 118.428 91.727,119.574 90.156,120.563 88.976 C 121.552 87.795,122.619 86.302,122.934 85.659 C 123.249 85.015,123.868 84.137,124.310 83.707 C 125.415 82.632,126.967 80.464,127.800 78.829 C 128.183 78.078,129.043 76.832,129.712 76.061 C 131.715 73.749,132.293 72.984,132.293 72.639 C 132.293 71.803,134.878 68.892,137.025 67.311 C 139.956 65.154,141.342 65.037,143.813 66.738 M291.162 195.307 C 291.891 195.838,292.856 196.438,293.306 196.641 C 293.756 196.843,295.140 197.897,296.382 198.984 C 298.788 201.090,298.921 201.133,304.780 201.745 C 307.380 202.016,309.479 202.000,311.805 201.692 C 313.720 201.438,316.241 201.373,317.769 201.537 L 320.415 201.821 323.232 204.742 C 324.781 206.348,326.296 208.134,326.598 208.709 C 327.178 209.814,329.687 212.293,330.226 212.293 C 330.401 212.293,331.103 212.828,331.787 213.481 C 332.471 214.135,333.647 215.145,334.400 215.725 C 335.152 216.306,336.215 217.235,336.762 217.790 C 338.026 219.072,339.497 219.600,342.441 219.826 C 349.310 220.354,352.568 225.359,351.699 234.049 C 351.201 239.036,351.286 239.392,353.584 241.951 C 355.257 243.813,355.750 244.900,356.065 247.415 C 356.525 251.096,357.136 252.478,359.413 254.991 C 362.198 258.064,363.409 262.120,362.561 265.535 C 361.779 268.685,361.630 272.307,362.200 274.298 C 362.809 276.424,362.849 280.706,362.267 281.437 C 362.042 281.720,361.650 282.598,361.395 283.389 C 361.128 284.218,360.240 285.422,359.295 286.235 C 352.380 292.185,351.093 294.132,351.629 297.836 C 352.817 306.049,351.422 309.920,346.384 312.388 C 343.615 313.744,342.573 314.769,341.317 317.369 C 340.696 318.656,339.571 320.158,338.686 320.882 C 337.836 321.577,336.665 322.541,336.083 323.024 C 334.845 324.051,330.372 325.637,329.007 325.533 C 328.015 325.458,321.418 322.242,320.360 321.318 C 319.538 320.601,317.507 320.637,316.041 321.395 C 314.769 322.053,310.892 322.239,308.642 321.750 C 307.041 321.403,302.078 316.861,300.176 314.004 C 297.670 310.238,294.358 308.181,289.756 307.533 C 288.254 307.321,286.146 306.881,285.073 306.554 C 280.703 305.223,275.389 306.849,272.195 310.494 C 271.980 310.739,271.058 311.401,270.144 311.964 C 269.231 312.527,268.002 313.650,267.413 314.460 C 266.823 315.269,265.594 316.605,264.680 317.429 C 263.766 318.252,262.695 319.650,262.300 320.536 C 261.905 321.422,260.933 322.918,260.140 323.862 C 258.422 325.905,258.169 326.354,257.331 328.832 C 256.977 329.877,256.381 331.171,256.005 331.707 C 254.887 333.303,253.619 335.992,252.999 338.080 C 251.634 342.674,250.026 343.511,245.322 342.076 C 243.256 341.446,241.769 340.735,241.158 340.084 C 240.635 339.527,238.975 338.275,237.469 337.300 C 234.916 335.648,232.881 333.870,228.767 329.696 C 225.461 326.343,222.515 322.902,221.801 321.559 C 220.810 319.697,219.363 317.680,218.090 316.388 C 216.198 314.466,216.101 308.860,217.931 307.141 C 218.427 306.675,219.951 306.039,221.319 305.726 C 224.521 304.994,225.710 304.521,228.098 303.029 C 229.171 302.358,230.839 301.497,231.805 301.116 C 233.986 300.255,235.893 299.096,237.079 297.909 C 237.579 297.410,238.525 296.674,239.183 296.274 C 242.141 294.475,250.106 285.896,251.599 282.900 C 252.126 281.841,252.702 280.976,252.878 280.976 C 253.371 280.976,254.829 277.730,254.829 276.633 C 254.829 275.558,253.681 274.347,250.867 272.455 C 247.825 270.410,245.854 266.233,245.854 261.834 C 245.854 260.528,245.601 260.053,244.195 258.719 C 243.283 257.853,242.294 256.905,241.997 256.612 C 240.086 254.723,238.962 249.639,239.833 246.829 C 241.002 243.064,240.201 239.200,238.008 238.027 C 234.656 236.233,235.256 226.385,238.943 222.692 C 241.166 220.466,241.951 219.179,241.951 217.764 C 241.951 216.344,242.799 213.463,243.217 213.463 C 243.379 213.463,243.512 213.301,243.512 213.102 C 243.512 212.903,244.365 211.452,245.407 209.878 L 247.303 207.016 250.470 205.947 C 254.142 204.708,254.734 204.664,256.695 205.486 C 260.212 206.958,262.864 206.363,266.057 203.385 C 267.517 202.024,268.026 201.799,270.155 201.578 C 274.095 201.168,274.520 201.017,276.326 199.387 C 277.274 198.532,278.576 197.553,279.220 197.212 C 279.863 196.871,280.762 196.252,281.217 195.837 C 283.173 194.051,289.010 193.740,291.162 195.307 M173.231 198.557 C 175.875 201.354,177.882 204.294,178.548 206.346 C 179.373 208.888,180.536 209.401,182.172 207.945 C 182.748 207.432,183.834 206.677,184.585 206.267 C 185.337 205.858,186.654 204.962,187.512 204.276 C 189.601 202.609,190.568 202.138,193.142 201.537 C 194.338 201.257,197.231 200.226,199.570 199.246 C 209.845 194.939,215.776 200.694,211.148 210.481 C 210.304 212.265,209.154 215.148,208.591 216.885 C 207.672 219.723,206.854 221.220,205.387 222.747 C 205.121 223.023,204.337 224.197,203.644 225.356 C 202.951 226.514,201.973 227.682,201.470 227.951 C 200.709 228.359,200.599 228.640,200.812 229.635 C 201.162 231.270,201.283 231.415,202.295 231.415 C 205.602 231.415,212.683 236.981,212.683 239.581 C 212.683 241.587,207.122 246.698,203.902 247.651 C 201.360 248.403,197.071 250.288,195.512 251.338 C 194.976 251.699,193.356 252.289,191.914 252.647 C 187.516 253.740,183.805 257.494,183.805 260.849 C 183.805 262.020,182.257 265.512,181.100 266.952 C 180.457 267.752,179.475 269.370,178.917 270.547 C 178.360 271.724,177.109 273.618,176.138 274.756 C 175.167 275.894,173.788 277.738,173.074 278.854 C 172.360 279.970,171.190 281.333,170.473 281.883 C 169.757 282.433,168.738 283.589,168.208 284.453 C 166.295 287.575,161.032 287.850,157.929 284.990 C 156.961 284.097,155.294 282.923,154.225 282.381 C 153.156 281.840,152.043 281.169,151.751 280.892 C 150.250 279.465,147.171 277.106,146.080 276.548 C 145.399 276.200,144.208 275.140,143.432 274.193 C 142.398 272.931,141.816 272.524,141.254 272.671 C 139.959 273.010,140.244 275.148,141.813 276.861 C 142.542 277.657,143.507 279.303,143.957 280.520 C 144.407 281.736,145.487 283.522,146.356 284.488 C 147.224 285.454,148.211 286.771,148.547 287.415 C 148.884 288.059,150.217 289.565,151.511 290.762 C 155.025 294.016,154.812 298.744,151.024 301.565 C 150.059 302.284,148.302 303.657,147.122 304.615 C 145.941 305.573,143.834 307.230,142.439 308.298 C 141.044 309.365,139.551 310.516,139.122 310.856 C 138.693 311.197,137.718 311.798,136.955 312.194 C 136.193 312.589,134.700 313.692,133.638 314.645 C 132.576 315.598,131.268 316.510,130.732 316.672 C 130.195 316.834,129.229 317.275,128.585 317.652 C 125.504 319.454,120.636 318.215,115.742 314.381 C 114.126 313.116,112.103 311.767,111.246 311.383 C 110.366 310.989,109.214 310.010,108.600 309.136 C 107.588 307.695,105.792 306.851,104.878 307.387 C 103.724 308.063,105.028 311.648,107.676 315.081 C 108.552 316.216,109.268 317.326,109.268 317.548 C 109.268 317.769,110.234 319.033,111.415 320.356 C 114.417 323.720,114.362 324.377,110.797 327.783 C 108.393 330.080,107.618 330.565,104.846 331.505 C 103.093 332.099,100.517 333.255,99.122 334.072 C 96.117 335.832,95.325 336.154,92.488 336.764 C 90.139 337.269,90.020 337.312,86.049 339.131 C 80.758 341.553,72.651 342.375,70.049 340.754 C 67.097 338.914,65.738 333.664,66.951 328.780 C 67.270 327.493,67.877 324.595,68.299 322.341 C 68.892 319.177,69.509 317.355,71.009 314.341 C 72.078 312.195,73.324 309.212,73.780 307.711 C 74.235 306.211,75.227 304.140,75.984 303.109 C 76.741 302.078,77.835 299.961,78.415 298.406 C 78.995 296.850,80.198 294.505,81.088 293.195 C 81.978 291.885,83.158 289.791,83.710 288.542 C 84.263 287.292,84.851 286.177,85.017 286.062 C 85.518 285.717,87.638 282.461,88.583 280.585 C 89.069 279.620,90.106 278.127,90.887 277.268 C 91.667 276.410,92.828 274.878,93.466 273.864 C 95.162 271.168,97.073 270.916,100.183 272.981 C 102.845 274.748,102.692 274.630,105.413 277.064 C 108.357 279.699,109.157 280.287,111.220 281.328 C 112.185 281.815,113.415 282.692,113.951 283.275 C 116.030 285.536,119.415 286.060,119.415 284.121 C 119.415 283.489,119.232 282.860,119.009 282.722 C 118.785 282.584,118.188 281.827,117.682 281.040 C 117.176 280.254,116.034 278.841,115.146 277.902 C 114.257 276.963,113.250 275.645,112.909 274.975 C 112.567 274.305,111.522 272.931,110.586 271.923 C 109.650 270.914,108.576 269.422,108.199 268.606 C 107.821 267.790,107.226 266.804,106.877 266.416 C 104.670 263.966,104.305 258.585,106.235 256.960 C 106.881 256.417,107.828 255.357,108.338 254.604 C 108.849 253.851,110.233 252.292,111.414 251.139 C 112.595 249.986,113.561 248.873,113.561 248.666 C 113.561 248.459,114.524 247.562,115.702 246.673 C 116.879 245.784,118.097 244.564,118.408 243.963 C 118.719 243.361,119.694 242.392,120.575 241.809 C 121.456 241.227,122.787 240.074,123.533 239.247 C 126.130 236.374,129.156 237.348,135.051 242.956 C 136.675 244.501,138.782 246.160,139.734 246.641 C 140.685 247.123,142.141 248.126,142.970 248.870 C 144.788 250.502,146.622 251.317,148.475 251.317 C 150.847 251.317,150.377 250.055,146.134 245.032 C 144.575 243.186,143.002 241.102,142.640 240.402 C 142.279 239.703,141.320 238.404,140.510 237.516 C 136.686 233.324,137.023 227.588,141.156 226.551 C 141.660 226.424,143.516 225.457,145.280 224.401 C 148.444 222.507,150.829 221.687,153.224 221.668 C 154.796 221.656,157.268 219.247,157.268 217.728 C 157.268 216.276,157.872 214.611,160.016 210.146 C 161.047 208.000,162.084 205.506,162.321 204.603 C 163.803 198.961,170.241 195.394,173.231 198.557 " stroke="none" fill="#fbfbfa" fill-rule="evenodd"></path><path id="path3" d="M247.024 80.770 C 245.200 81.155,242.390 81.744,240.780 82.081 C 239.171 82.418,236.010 82.883,233.756 83.114 C 228.458 83.659,226.998 84.077,224.390 85.799 C 221.179 87.919,221.142 87.952,215.036 94.102 C 207.400 101.795,205.609 102.636,200.195 101.070 C 193.002 98.991,181.318 97.713,179.029 98.756 C 177.560 99.425,172.098 109.346,172.098 111.344 C 172.098 111.545,171.407 112.721,170.564 113.957 C 169.720 115.193,168.393 117.497,167.614 119.078 C 166.834 120.658,165.697 122.478,165.086 123.122 C 164.474 123.766,163.587 124.993,163.113 125.849 C 161.645 128.498,155.214 135.449,150.831 139.124 C 147.451 141.957,148.452 145.973,153.235 148.770 C 156.838 150.878,157.825 154.331,155.892 158.070 C 154.724 160.328,155.285 162.328,158.279 166.577 C 159.965 168.969,169.484 169.431,173.602 167.320 C 174.842 166.684,176.461 168.459,177.313 171.388 C 178.549 175.641,181.834 178.117,186.859 178.584 C 189.714 178.849,189.715 178.849,191.507 180.924 C 192.964 182.612,193.770 183.166,195.821 183.890 C 197.209 184.380,198.754 185.220,199.255 185.756 C 200.876 187.494,201.812 188.661,202.456 189.750 C 203.751 191.937,206.936 192.539,211.254 191.415 C 214.261 190.632,215.633 190.677,217.588 191.623 C 221.551 193.541,225.584 192.995,229.703 189.981 C 233.044 187.536,233.700 187.260,236.973 186.923 C 239.979 186.613,245.671 184.008,247.144 182.268 C 248.594 180.556,250.238 179.650,252.779 179.161 C 259.402 177.888,262.634 174.561,262.634 169.014 C 262.634 165.326,264.145 163.798,267.460 164.130 C 272.313 164.617,275.450 163.831,277.520 161.610 C 283.473 155.223,283.376 152.092,277.038 145.955 L 273.019 142.063 273.665 140.709 C 274.020 139.965,274.739 139.075,275.263 138.732 C 275.786 138.389,276.698 137.370,277.289 136.469 C 277.880 135.567,279.056 134.107,279.904 133.225 C 281.343 131.727,281.915 130.924,283.902 127.611 C 284.332 126.895,285.274 125.637,285.997 124.814 C 286.937 123.742,287.135 123.317,286.693 123.317 C 285.866 123.317,283.317 122.084,283.317 121.684 C 283.317 120.881,282.611 121.482,282.417 122.449 C 281.903 125.022,280.456 127.930,278.810 129.696 C 277.842 130.737,276.458 132.493,275.735 133.599 C 274.348 135.722,272.554 137.756,272.070 137.756 C 271.911 137.756,270.865 138.629,269.746 139.697 L 267.711 141.638 264.933 141.010 C 261.864 140.317,258.716 138.751,258.461 137.791 C 258.361 137.412,257.194 136.834,255.462 136.305 C 252.797 135.490,251.963 134.938,249.880 132.605 C 249.411 132.081,248.321 131.440,247.458 131.181 C 245.588 130.621,243.512 128.974,243.512 128.051 C 243.512 127.611,242.958 127.226,241.854 126.899 C 240.941 126.629,239.422 125.888,238.478 125.253 C 237.533 124.617,236.611 124.098,236.429 124.098 C 236.247 124.098,236.098 123.697,236.098 123.207 C 236.098 122.489,235.758 122.217,234.341 121.798 C 232.320 121.201,229.240 118.993,228.889 117.889 C 228.614 117.022,226.803 116.293,224.926 116.293 C 223.875 116.293,223.226 116.694,221.530 118.390 C 220.363 119.556,218.758 120.719,217.911 121.011 C 215.951 121.688,205.790 121.757,204.450 121.103 C 203.934 120.852,202.699 120.353,201.705 119.995 C 199.825 119.318,197.854 117.017,197.854 115.500 C 197.854 115.103,197.678 114.669,197.463 114.537 C 196.924 114.203,196.975 112.321,197.561 110.944 C 198.509 108.718,201.065 107.060,206.829 104.935 C 208.794 104.211,209.951 103.428,211.962 101.463 C 213.389 100.068,215.145 98.382,215.864 97.715 C 216.583 97.049,218.576 95.057,220.293 93.288 C 223.722 89.755,227.913 87.255,232.390 86.072 C 235.921 85.138,248.755 83.849,250.534 84.249 C 251.996 84.577,252.010 84.569,251.728 83.559 C 251.570 82.997,251.484 81.966,251.535 81.268 C 251.646 79.777,251.709 79.784,247.024 80.770 M194.789 146.465 C 197.428 147.365,198.634 148.087,198.634 148.767 C 198.634 148.975,198.976 149.580,199.395 150.112 C 199.813 150.644,200.267 151.901,200.403 152.906 C 200.858 156.261,200.711 156.128,203.662 155.853 C 207.834 155.466,213.463 158.617,213.463 161.340 C 213.463 161.676,213.642 161.951,213.860 161.951 C 214.078 161.951,214.535 162.535,214.875 163.248 C 215.450 164.454,215.688 164.577,218.324 165.020 C 224.454 166.050,227.319 176.304,222.536 180.098 C 221.995 180.527,220.829 181.645,219.947 182.582 C 215.380 187.432,204.646 189.719,203.494 186.089 C 202.849 184.056,200.383 182.226,197.506 181.644 C 196.585 181.459,195.396 180.582,193.603 178.768 C 190.737 175.868,189.580 175.220,187.273 175.220 C 184.963 175.220,181.772 173.116,180.351 170.656 C 179.227 168.711,179.417 153.911,180.585 152.426 C 181.068 151.812,181.463 151.091,181.463 150.824 C 181.463 150.011,184.325 147.333,186.167 146.421 C 188.434 145.299,191.412 145.314,194.789 146.465 M166.220 153.608 C 166.556 154.012,167.609 154.868,168.560 155.512 C 169.510 156.156,170.868 157.227,171.576 157.893 L 172.864 159.103 171.936 161.015 C 169.630 165.768,163.783 166.996,160.255 163.469 C 157.989 161.202,158.272 158.277,161.232 153.387 C 161.905 152.274,165.232 152.422,166.220 153.608 M283.169 194.745 C 282.550 194.930,281.672 195.421,281.217 195.837 C 280.762 196.252,279.863 196.871,279.220 197.212 C 278.576 197.553,277.266 198.538,276.310 199.401 C 274.683 200.869,274.015 201.134,271.024 201.497 C 270.289 201.586,270.552 201.661,271.733 201.698 C 273.905 201.765,274.600 201.455,277.268 199.222 C 282.382 194.945,288.394 193.464,290.979 195.846 C 291.380 196.215,292.295 196.758,293.014 197.053 C 293.732 197.348,295.079 198.317,296.006 199.206 C 298.150 201.259,299.293 201.770,301.579 201.698 C 302.772 201.660,303.005 201.589,302.244 201.497 C 299.139 201.120,298.520 200.854,296.382 198.984 C 295.140 197.897,293.756 196.843,293.306 196.641 C 292.856 196.438,291.891 195.838,291.162 195.307 C 289.743 194.274,285.693 193.989,283.169 194.745 M168.537 197.393 C 166.477 198.255,162.898 202.406,162.321 204.603 C 162.084 205.506,161.047 208.000,160.016 210.146 C 157.872 214.611,157.268 216.276,157.268 217.728 C 157.268 219.247,154.796 221.656,153.224 221.668 C 150.829 221.687,148.444 222.507,145.280 224.401 C 143.516 225.457,141.660 226.424,141.156 226.551 C 137.023 227.588,136.686 233.324,140.510 237.516 C 141.320 238.404,142.279 239.703,142.640 240.402 C 143.002 241.102,144.575 243.186,146.134 245.032 C 150.377 250.055,150.847 251.317,148.475 251.317 C 146.622 251.317,144.788 250.502,142.970 248.870 C 142.141 248.126,140.685 247.123,139.734 246.641 C 138.782 246.160,136.675 244.501,135.051 242.956 C 129.156 237.348,126.130 236.374,123.533 239.247 C 122.787 240.074,121.456 241.227,120.575 241.809 C 119.694 242.392,118.719 243.361,118.408 243.963 C 118.097 244.564,116.879 245.784,115.702 246.673 C 114.524 247.562,113.561 248.459,113.561 248.666 C 113.561 248.873,112.595 249.986,111.414 251.139 C 110.233 252.292,108.849 253.851,108.338 254.604 C 107.828 255.357,106.881 256.417,106.235 256.960 C 104.305 258.585,104.670 263.966,106.877 266.416 C 107.226 266.804,107.821 267.790,108.199 268.606 C 108.576 269.422,109.650 270.914,110.586 271.923 C 111.522 272.931,112.567 274.305,112.909 274.975 C 113.250 275.645,114.257 276.963,115.146 277.902 C 116.034 278.841,117.176 280.254,117.682 281.040 C 118.188 281.827,118.785 282.584,119.009 282.722 C 119.232 282.860,119.415 283.489,119.415 284.121 C 119.415 286.060,116.030 285.536,113.951 283.275 C 113.415 282.692,112.185 281.815,111.220 281.328 C 109.157 280.287,108.357 279.699,105.413 277.064 C 98.548 270.920,95.783 270.179,93.466 273.864 C 92.828 274.878,91.667 276.410,90.887 277.268 C 90.106 278.127,89.069 279.620,88.583 280.585 C 87.638 282.461,85.518 285.717,85.017 286.062 C 84.851 286.177,84.263 287.292,83.710 288.542 C 83.158 289.791,81.978 291.885,81.088 293.195 C 80.198 294.505,78.995 296.850,78.415 298.406 C 77.835 299.961,76.741 302.078,75.984 303.109 C 75.227 304.140,74.235 306.211,73.780 307.711 C 73.324 309.212,72.078 312.195,71.009 314.341 C 69.509 317.355,68.892 319.177,68.299 322.341 C 67.877 324.595,67.270 327.493,66.951 328.780 C 65.738 333.664,67.097 338.914,70.049 340.754 C 72.651 342.375,80.758 341.553,86.049 339.131 C 90.020 337.312,90.139 337.269,92.488 336.764 C 95.325 336.154,96.117 335.832,99.122 334.072 C 100.517 333.255,103.093 332.099,104.846 331.505 C 107.618 330.565,108.393 330.080,110.797 327.783 C 114.362 324.377,114.417 323.720,111.415 320.356 C 110.234 319.033,109.268 317.769,109.268 317.548 C 109.268 317.326,108.552 316.216,107.676 315.081 C 105.028 311.648,103.724 308.063,104.878 307.387 C 105.792 306.851,107.588 307.695,108.600 309.136 C 109.214 310.010,110.366 310.989,111.246 311.383 C 112.103 311.767,114.126 313.116,115.742 314.381 C 120.636 318.215,125.504 319.454,128.585 317.652 C 129.229 317.275,130.195 316.834,130.732 316.672 C 131.268 316.510,132.576 315.598,133.638 314.645 C 134.700 313.692,136.193 312.589,136.955 312.194 C 137.718 311.798,138.693 311.197,139.122 310.856 C 139.551 310.516,141.044 309.365,142.439 308.298 C 143.834 307.230,145.941 305.573,147.122 304.615 C 148.302 303.657,150.059 302.284,151.024 301.565 C 154.812 298.744,155.025 294.016,151.511 290.762 C 150.217 289.565,148.884 288.059,148.547 287.415 C 148.211 286.771,147.224 285.454,146.356 284.488 C 145.487 283.522,144.407 281.736,143.957 280.520 C 143.507 279.303,142.542 277.657,141.813 276.861 C 140.244 275.148,139.959 273.010,141.254 272.671 C 141.816 272.524,142.398 272.931,143.432 274.193 C 144.208 275.140,145.399 276.200,146.080 276.548 C 147.171 277.106,150.250 279.465,151.751 280.892 C 152.043 281.169,153.156 281.840,154.225 282.381 C 155.294 282.923,156.961 284.097,157.929 284.990 C 161.032 287.850,166.295 287.575,168.208 284.453 C 168.738 283.589,169.757 282.433,170.473 281.883 C 171.190 281.333,172.360 279.970,173.074 278.854 C 173.788 277.738,175.167 275.894,176.138 274.756 C 177.109 273.618,178.360 271.724,178.917 270.547 C 179.475 269.370,180.457 267.752,181.100 266.952 C 182.257 265.512,183.805 262.020,183.805 260.849 C 183.805 257.494,187.516 253.740,191.914 252.647 C 193.356 252.289,194.976 251.699,195.512 251.338 C 197.071 250.288,201.360 248.403,203.902 247.651 C 207.122 246.698,212.683 241.587,212.683 239.581 C 212.683 236.981,205.602 231.415,202.295 231.415 C 201.283 231.415,201.162 231.270,200.812 229.635 C 200.599 228.640,200.709 228.359,201.470 227.951 C 201.973 227.682,202.951 226.514,203.644 225.356 C 204.337 224.197,205.121 223.023,205.387 222.747 C 206.854 221.220,207.672 219.723,208.591 216.885 C 209.154 215.148,210.304 212.265,211.148 210.481 C 215.776 200.694,209.845 194.939,199.570 199.246 C 197.231 200.226,194.338 201.257,193.142 201.537 C 190.568 202.138,189.601 202.609,187.512 204.276 C 186.654 204.962,185.337 205.858,184.585 206.267 C 183.834 206.677,182.748 207.432,182.172 207.945 C 180.536 209.401,179.373 208.888,178.548 206.346 C 177.882 204.294,175.875 201.354,173.231 198.557 C 171.815 197.059,170.258 196.673,168.537 197.393 M173.044 200.720 C 173.614 201.826,174.775 203.610,175.624 204.683 C 176.472 205.756,177.168 206.961,177.169 207.362 C 177.178 210.890,180.515 212.091,182.829 209.399 C 183.489 208.631,185.106 207.533,186.537 206.883 C 187.932 206.248,189.555 205.298,190.145 204.772 C 191.421 203.632,193.521 202.820,197.386 201.972 C 198.953 201.629,201.148 201.000,202.264 200.576 C 204.683 199.657,206.553 199.587,207.220 200.390 C 207.487 200.712,207.877 200.976,208.086 200.976 C 208.296 200.976,209.033 201.612,209.725 202.390 C 211.265 204.120,211.209 204.613,208.609 212.261 C 207.630 215.142,206.829 217.695,206.829 217.936 C 206.829 218.177,206.046 219.143,205.089 220.082 C 204.037 221.114,203.075 222.550,202.658 223.709 C 202.216 224.940,201.371 226.162,200.301 227.119 C 197.196 229.899,198.242 231.911,203.429 233.132 C 204.032 233.274,205.639 234.533,207.038 235.960 C 210.353 239.341,210.346 239.782,206.927 243.372 C 204.123 246.315,203.616 246.587,198.981 247.622 C 196.930 248.081,195.663 248.609,194.884 249.329 C 192.424 251.605,189.441 252.543,188.663 251.285 C 188.351 250.780,187.065 251.065,184.757 252.150 C 182.955 252.997,182.200 254.359,181.651 257.756 C 181.409 259.257,179.454 263.163,178.718 263.618 C 178.290 263.883,177.408 265.794,176.777 267.826 C 176.520 268.653,175.382 270.296,174.209 271.534 C 173.051 272.756,172.101 273.880,172.100 274.032 C 172.090 275.092,164.582 282.927,163.576 282.927 C 161.846 282.927,155.277 279.741,154.049 278.307 C 153.560 277.736,152.459 276.759,151.604 276.136 C 149.999 274.968,146.674 271.883,143.877 268.969 C 139.737 264.655,133.068 266.888,135.734 271.695 C 136.125 272.400,136.668 273.854,136.942 274.927 C 137.777 278.198,138.229 279.141,139.928 281.171 C 140.826 282.244,141.917 283.824,142.352 284.683 C 142.787 285.541,143.865 287.000,144.748 287.925 C 145.631 288.849,146.657 290.079,147.028 290.657 C 147.400 291.234,148.103 292.030,148.591 292.425 C 151.940 295.131,151.142 296.762,143.404 303.024 C 141.548 304.527,138.866 306.766,137.444 308.000 C 136.023 309.234,134.589 310.248,134.259 310.252 C 133.929 310.256,132.094 311.310,130.182 312.593 C 125.256 315.900,122.004 315.775,118.634 312.152 C 118.098 311.575,116.923 310.651,116.024 310.098 C 115.125 309.546,113.079 307.848,111.478 306.325 C 103.286 298.537,98.018 297.914,98.413 304.780 C 98.539 306.978,98.771 307.630,100.145 309.659 C 101.017 310.946,102.207 312.966,102.789 314.146 C 103.370 315.327,104.059 316.468,104.319 316.683 C 108.081 319.791,108.481 323.882,105.310 326.818 C 102.714 329.222,102.138 329.519,98.406 330.385 C 96.981 330.716,95.123 331.517,94.019 332.276 C 91.902 333.733,89.765 334.487,85.659 335.226 C 84.156 335.497,81.554 336.220,79.876 336.835 C 72.654 339.478,70.244 337.761,70.244 329.973 C 70.244 325.906,70.753 323.963,72.958 319.610 C 73.773 318.000,74.670 315.717,74.950 314.537 C 75.570 311.924,77.266 307.998,78.525 306.259 C 79.036 305.553,79.686 304.273,79.970 303.415 C 80.732 301.115,82.764 296.976,83.132 296.976 C 83.308 296.976,84.084 295.642,84.858 294.012 C 85.631 292.382,86.962 290.021,87.815 288.765 C 88.668 287.509,89.366 286.243,89.366 285.951 C 89.366 285.192,91.406 282.125,92.675 280.976 C 93.267 280.439,94.176 279.335,94.695 278.522 C 95.214 277.709,96.072 276.846,96.603 276.604 C 97.580 276.159,97.652 276.175,100.442 277.505 C 101.061 277.800,102.378 278.892,103.369 279.932 C 104.360 280.972,105.698 282.096,106.341 282.430 C 106.985 282.763,107.600 283.151,107.707 283.293 C 107.815 283.434,108.517 283.976,109.268 284.496 C 110.020 285.016,110.970 285.750,111.381 286.126 C 112.094 286.780,113.383 287.288,115.519 287.754 C 116.059 287.872,117.451 288.678,118.613 289.546 C 121.132 291.425,122.691 291.597,124.236 290.165 C 126.070 288.465,124.849 283.012,122.244 281.274 C 121.439 280.736,120.341 279.559,119.805 278.659 C 119.268 277.758,118.162 276.306,117.346 275.433 C 116.530 274.560,115.425 272.984,114.892 271.930 C 114.358 270.877,113.077 268.968,112.046 267.688 C 108.115 262.810,108.470 259.189,113.364 254.225 C 114.009 253.571,115.866 251.636,117.490 249.926 C 125.525 241.465,128.143 240.649,132.488 245.248 C 133.561 246.384,134.855 247.529,135.364 247.793 C 135.873 248.057,136.751 248.682,137.315 249.183 C 140.154 251.699,140.839 252.165,142.744 252.882 C 145.235 253.819,146.514 254.586,148.217 256.168 C 149.396 257.263,149.722 257.361,152.006 257.313 C 156.799 257.213,158.274 255.156,155.675 252.196 C 155.057 251.492,154.211 250.169,153.795 249.256 C 153.379 248.343,152.322 247.020,151.447 246.317 C 150.572 245.613,149.566 244.475,149.212 243.787 C 148.859 243.099,147.808 241.688,146.878 240.650 C 145.948 239.612,144.636 237.680,143.962 236.357 C 143.289 235.034,142.498 233.512,142.204 232.976 C 141.150 231.049,142.870 228.925,146.130 228.129 C 146.765 227.974,148.521 227.263,150.032 226.549 C 151.544 225.836,153.972 224.713,155.429 224.054 C 158.560 222.638,159.280 221.472,158.931 218.381 C 158.734 216.642,159.417 214.361,160.402 213.463 C 160.739 213.157,162.732 208.536,162.732 208.062 C 162.732 204.839,168.094 198.334,170.557 198.569 C 171.860 198.693,172.112 198.912,173.044 200.720 M313.854 201.650 C 314.659 201.734,315.976 201.734,316.780 201.650 C 317.585 201.566,316.927 201.497,315.317 201.497 C 313.707 201.497,313.049 201.566,313.854 201.650 M266.536 202.927 C 263.907 205.383,262.931 206.050,261.921 206.080 C 261.348 206.097,261.105 206.201,261.383 206.313 C 262.342 206.698,263.718 206.051,265.664 204.301 C 266.739 203.335,268.033 202.378,268.541 202.175 C 269.424 201.821,269.428 201.805,268.627 201.781 C 268.166 201.767,267.226 202.283,266.536 202.927 M306.636 202.285 C 307.877 202.504,309.340 202.507,310.343 202.292 C 311.769 201.987,311.483 201.936,308.293 201.930 C 304.811 201.923,304.710 201.944,306.636 202.285 M319.555 202.174 C 320.416 202.519,325.101 207.121,326.444 208.941 C 327.011 209.710,327.017 209.697,326.547 208.709 C 325.685 206.898,320.448 201.753,319.493 201.781 C 318.647 201.805,318.648 201.811,319.555 202.174 M250.176 206.013 C 247.414 207.007,243.512 211.158,243.512 213.101 C 243.512 213.300,243.379 213.463,243.217 213.463 C 242.775 213.463,241.947 216.391,241.978 217.848 C 242.009 219.369,242.375 218.659,243.060 215.750 C 243.502 213.873,245.770 209.619,247.134 208.111 C 249.058 205.983,253.316 205.345,258.812 206.361 C 259.823 206.548,260.559 206.554,260.448 206.375 C 260.337 206.195,259.752 206.049,259.147 206.049 C 258.542 206.049,257.416 205.785,256.646 205.463 C 254.768 204.679,253.606 204.778,250.176 206.013 M327.477 210.686 C 327.729 211.091,328.477 211.737,329.139 212.124 C 330.404 212.863,333.640 215.510,335.922 217.672 C 336.666 218.376,337.341 218.887,337.422 218.806 C 337.624 218.604,336.049 217.000,334.398 215.725 C 333.646 215.145,332.471 214.135,331.787 213.481 C 331.103 212.828,330.393 212.293,330.208 212.293 C 330.023 212.293,329.321 211.766,328.647 211.122 C 327.245 209.783,326.812 209.621,327.477 210.686 M338.207 219.301 C 338.455 219.570,339.860 219.922,341.329 220.083 C 345.406 220.530,348.274 222.110,350.222 224.980 C 350.798 225.829,351.220 226.183,351.220 225.817 C 351.220 223.744,345.771 220.121,342.059 219.726 C 340.551 219.566,338.966 219.295,338.537 219.123 C 337.923 218.879,337.852 218.916,338.207 219.301 M241.167 220.105 C 240.935 220.538,239.970 221.668,239.023 222.615 C 238.076 223.562,237.030 224.985,236.699 225.777 C 235.834 227.848,235.973 228.410,236.864 226.446 C 237.277 225.538,238.390 223.957,239.338 222.934 C 240.957 221.187,242.221 219.317,241.784 219.317 C 241.676 219.317,241.399 219.672,241.167 220.105 M351.475 232.139 C 351.309 234.576,351.253 236.652,351.353 236.751 C 351.604 237.002,352.113 229.869,351.929 228.679 C 351.846 228.145,351.642 229.702,351.475 232.139 M236.133 234.732 C 236.095 235.650,237.473 238.049,238.038 238.049 C 238.618 238.049,240.302 240.884,240.495 242.186 C 240.649 243.221,240.669 243.199,240.722 241.932 C 240.771 240.777,240.449 240.174,238.794 238.318 C 237.702 237.092,236.664 235.608,236.487 235.020 C 236.246 234.221,236.157 234.148,236.133 234.732 M350.838 237.964 C 350.821 238.938,351.914 240.989,352.962 241.951 C 354.068 242.966,355.028 244.565,355.538 246.241 L 355.835 247.220 355.867 246.244 C 355.903 245.151,354.821 243.195,353.313 241.627 C 352.762 241.054,351.982 239.883,351.579 239.024 C 351.176 238.166,350.843 237.689,350.838 237.964 M239.902 246.359 C 239.031 250.003,239.972 254.610,241.997 256.612 C 242.294 256.905,243.283 257.853,244.195 258.719 C 245.601 260.053,245.854 260.528,245.854 261.834 C 245.854 266.233,247.825 270.410,250.867 272.455 C 253.681 274.347,254.829 275.558,254.829 276.633 C 254.829 277.730,253.371 280.976,252.878 280.976 C 252.702 280.976,252.126 281.841,251.599 282.900 C 250.106 285.896,242.141 294.475,239.183 296.274 C 238.525 296.674,237.579 297.410,237.079 297.909 C 235.893 299.096,233.986 300.255,231.805 301.116 C 230.839 301.497,229.171 302.358,228.098 303.029 C 225.710 304.521,224.521 304.994,221.319 305.726 C 219.951 306.039,218.427 306.675,217.931 307.141 C 216.101 308.860,216.198 314.466,218.090 316.388 C 219.363 317.680,220.810 319.697,221.801 321.559 C 222.515 322.902,225.461 326.343,228.767 329.696 C 232.881 333.870,234.916 335.648,237.469 337.300 C 238.975 338.275,240.635 339.527,241.158 340.084 C 241.769 340.735,243.256 341.446,245.322 342.076 C 250.026 343.511,251.634 342.674,252.999 338.080 C 253.619 335.992,254.887 333.303,256.005 331.707 C 256.381 331.171,256.977 329.877,257.331 328.832 C 258.169 326.354,258.422 325.905,260.140 323.862 C 260.933 322.918,261.905 321.422,262.300 320.536 C 262.695 319.650,263.766 318.252,264.680 317.429 C 265.594 316.605,266.823 315.269,267.413 314.460 C 268.002 313.650,269.231 312.527,270.144 311.964 C 271.058 311.401,271.980 310.739,272.195 310.494 C 275.360 306.882,280.486 305.318,285.268 306.507 C 285.805 306.640,285.483 306.395,284.552 305.962 C 280.998 304.308,276.756 305.427,272.585 309.121 C 271.512 310.071,269.977 311.284,269.173 311.815 C 268.370 312.346,267.711 312.927,267.710 313.105 C 267.709 313.284,266.556 314.558,265.149 315.938 C 263.743 317.317,262.348 319.028,262.051 319.740 C 261.753 320.452,260.702 321.933,259.715 323.031 C 258.480 324.404,257.602 325.918,256.902 327.880 C 256.342 329.448,255.755 330.820,255.596 330.927 C 254.966 331.354,253.323 334.783,252.512 337.366 C 251.227 341.457,250.997 341.667,247.885 341.612 C 244.714 341.556,243.028 340.858,240.994 338.761 C 240.146 337.886,239.302 337.171,239.119 337.171 C 238.515 337.171,234.363 334.137,233.155 332.813 C 232.503 332.097,231.271 330.898,230.419 330.146 C 229.566 329.395,228.366 328.166,227.751 327.415 C 227.136 326.663,225.700 325.044,224.559 323.815 C 223.418 322.587,222.152 320.829,221.744 319.908 C 221.337 318.987,220.431 317.709,219.731 317.068 C 215.347 313.055,217.338 306.006,222.869 305.960 C 224.384 305.947,226.287 305.204,228.665 303.696 C 229.836 302.954,232.031 301.778,233.543 301.083 C 235.055 300.388,236.772 299.273,237.358 298.605 C 237.945 297.936,239.086 297.050,239.895 296.634 C 242.368 295.365,250.278 286.965,251.700 284.098 C 252.179 283.132,253.165 281.721,253.891 280.964 C 256.787 277.940,256.157 275.348,251.851 272.577 C 248.435 270.379,246.751 267.443,246.371 263.024 C 246.125 260.167,245.268 258.557,243.308 257.273 C 240.981 255.747,239.143 248.965,240.414 246.590 C 240.641 246.165,240.773 245.297,240.706 244.661 C 240.614 243.782,240.421 244.190,239.902 246.359 M356.333 250.609 C 356.255 251.888,357.097 253.344,358.927 255.098 C 359.946 256.074,360.985 257.335,361.236 257.900 C 361.552 258.610,361.702 258.719,361.724 258.252 C 361.742 257.880,360.732 256.447,359.481 255.066 C 358.229 253.685,357.018 251.969,356.789 251.253 C 356.560 250.537,356.354 250.247,356.333 250.609 M361.992 260.488 C 362.350 262.676,362.357 263.713,362.026 265.951 C 361.780 267.610,361.811 267.785,362.232 267.122 C 362.848 266.153,362.820 261.250,362.191 259.902 C 361.786 259.034,361.764 259.098,361.992 260.488 M361.472 270.439 C 361.472 271.405,361.548 271.800,361.641 271.317 C 361.734 270.834,361.734 270.044,361.641 269.561 C 361.548 269.078,361.472 269.473,361.472 270.439 M361.975 275.512 C 362.330 278.708,362.204 280.013,361.308 282.406 C 360.593 284.317,358.242 287.220,357.409 287.220 C 357.253 287.220,356.739 287.790,356.266 288.488 L 355.406 289.756 356.532 288.701 C 357.152 288.121,358.395 287.012,359.295 286.236 C 360.239 285.424,361.128 284.218,361.395 283.389 C 361.650 282.598,362.050 281.710,362.285 281.415 C 362.837 280.723,362.761 275.613,362.181 274.341 C 361.809 273.524,361.775 273.715,361.975 275.512 M353.554 291.045 C 351.918 292.794,351.241 293.856,351.265 294.634 C 351.275 294.956,351.491 294.750,351.746 294.176 C 352.001 293.602,352.883 292.405,353.705 291.516 C 354.528 290.627,355.134 289.833,355.052 289.751 C 354.970 289.669,354.296 290.251,353.554 291.045 M351.301 297.561 C 351.288 298.420,351.418 299.912,351.590 300.878 C 352.029 303.348,352.063 300.746,351.628 297.951 C 351.332 296.050,351.323 296.040,351.301 297.561 M351.670 304.000 C 351.631 304.751,351.509 305.805,351.398 306.341 L 351.197 307.317 351.617 306.355 C 351.848 305.826,351.970 304.772,351.889 304.013 L 351.741 302.634 351.670 304.000 M287.220 307.122 C 287.756 307.294,288.546 307.434,288.976 307.434 C 289.594 307.434,289.553 307.369,288.780 307.122 C 288.244 306.950,287.454 306.810,287.024 306.810 C 286.406 306.810,286.447 306.875,287.220 307.122 M292.943 308.235 C 296.007 309.293,298.219 311.064,300.207 314.051 C 302.083 316.869,307.053 321.405,308.642 321.750 C 310.892 322.239,314.769 322.053,316.041 321.395 C 317.507 320.637,319.538 320.601,320.360 321.318 C 321.418 322.242,328.015 325.458,329.007 325.533 C 330.267 325.630,334.907 324.051,335.841 323.208 C 336.251 322.839,337.263 322.031,338.090 321.412 C 338.917 320.794,340.103 319.486,340.724 318.507 C 342.236 316.122,342.176 315.476,340.656 317.771 C 335.568 325.454,326.848 326.622,319.969 320.544 C 319.104 319.780,317.682 319.870,316.186 320.782 C 313.010 322.718,308.599 321.844,305.051 318.575 C 303.805 317.427,302.627 316.488,302.433 316.488 C 302.240 316.488,301.607 315.654,301.027 314.634 C 299.034 311.133,294.341 307.491,291.865 307.525 C 291.256 307.533,291.635 307.783,292.943 308.235 M350.072 308.840 C 349.607 309.594,348.752 310.563,348.174 310.995 C 347.595 311.427,347.302 311.786,347.523 311.793 C 348.077 311.810,350.238 309.789,350.811 308.717 C 351.589 307.263,350.984 307.364,350.072 308.840 M344.976 312.628 C 343.362 313.596,341.854 314.930,341.854 315.388 C 341.854 315.568,342.391 315.201,343.047 314.574 C 343.703 313.947,344.845 313.147,345.584 312.796 C 346.862 312.189,347.272 311.803,346.634 311.806 C 346.473 311.807,345.727 312.177,344.976 312.628 " stroke="none" fill="#ecc499" fill-rule="evenodd"></path><path id="path4" d="M283.668 47.099 C 283.110 47.188,281.705 48.140,280.546 49.216 C 279.387 50.292,277.649 51.813,276.683 52.596 C 274.068 54.715,269.314 58.780,267.294 60.621 C 266.316 61.514,264.672 62.930,263.641 63.769 C 262.611 64.607,261.464 65.793,261.093 66.403 C 260.722 67.013,259.808 68.172,259.061 68.979 C 257.578 70.582,256.780 72.434,256.780 74.274 C 256.780 76.746,255.950 78.063,253.663 79.217 C 251.382 80.369,251.448 80.227,251.659 83.489 C 251.685 83.906,252.649 85.622,253.800 87.302 C 254.951 88.983,256.277 91.110,256.745 92.029 C 257.532 93.570,258.303 94.669,263.230 101.268 C 267.370 106.812,267.610 107.104,270.049 109.541 C 274.475 113.965,278.337 117.371,280.293 118.576 C 281.098 119.072,281.756 119.631,281.756 119.817 C 281.756 120.399,283.455 122.005,284.803 122.698 C 286.733 123.689,292.865 123.214,295.805 121.845 C 297.138 121.225,299.380 120.658,301.721 120.352 C 308.476 119.466,307.979 119.751,316.246 112.000 C 328.082 100.901,330.677 96.832,327.853 93.800 C 327.450 93.367,326.999 92.633,326.852 92.168 C 326.601 91.377,324.234 88.539,319.634 83.512 C 318.553 82.332,317.376 80.927,317.018 80.390 C 316.411 79.481,315.710 78.680,313.193 76.018 C 312.644 75.437,312.195 74.806,312.195 74.615 C 312.195 74.424,311.817 73.933,311.354 73.524 C 310.892 73.115,309.485 71.402,308.228 69.716 C 306.971 68.031,305.521 66.187,305.005 65.619 C 302.574 62.938,302.049 62.307,302.049 62.067 C 302.049 61.925,301.237 60.941,300.245 59.880 C 299.252 58.819,297.980 57.337,297.417 56.585 C 296.853 55.834,295.662 54.496,294.769 53.611 C 293.877 52.726,292.691 51.281,292.134 50.399 C 290.607 47.980,286.995 46.572,283.668 47.099 M288.691 50.570 C 289.178 50.889,290.105 51.890,290.752 52.795 C 291.398 53.699,292.517 55.141,293.238 56.000 C 298.391 62.134,300.846 65.117,301.912 66.537 C 302.588 67.438,303.570 68.512,304.094 68.924 C 304.619 69.337,305.520 70.422,306.098 71.337 C 306.675 72.252,307.857 73.642,308.724 74.425 C 309.591 75.208,310.637 76.510,311.049 77.317 C 311.461 78.124,312.425 79.262,313.191 79.847 C 313.957 80.431,314.881 81.482,315.243 82.182 C 315.606 82.881,316.699 84.301,317.673 85.337 C 318.647 86.372,320.310 88.361,321.368 89.756 C 322.427 91.151,323.763 92.802,324.337 93.425 C 327.417 96.765,326.410 98.529,315.707 108.544 C 305.548 118.051,304.486 118.649,300.533 117.091 C 296.383 115.455,293.232 113.821,291.873 112.599 C 291.106 111.910,289.525 110.641,288.360 109.780 C 286.561 108.452,284.752 106.880,281.756 104.046 C 280.989 103.321,276.441 98.381,273.808 95.415 C 272.665 94.127,271.308 92.442,270.792 91.670 C 270.276 90.898,269.100 89.317,268.179 88.158 C 266.749 86.356,265.001 83.819,261.757 78.832 C 258.478 73.794,261.823 68.018,272.945 59.512 C 274.912 58.008,276.978 56.122,280.959 52.199 C 283.733 49.465,286.206 48.944,288.691 50.570 M137.025 67.311 C 134.878 68.892,132.293 71.803,132.293 72.639 C 132.293 72.984,131.715 73.749,129.712 76.061 C 129.043 76.832,128.183 78.078,127.800 78.829 C 126.967 80.464,125.415 82.632,124.310 83.707 C 123.868 84.137,123.249 85.015,122.934 85.659 C 122.619 86.302,121.552 87.795,120.563 88.976 C 119.574 90.156,118.428 91.727,118.016 92.467 C 117.605 93.206,117.060 94.085,116.806 94.418 C 114.765 97.095,113.576 98.807,112.631 100.432 C 112.024 101.474,110.863 103.012,110.051 103.849 C 109.239 104.686,108.291 105.940,107.944 106.637 C 107.597 107.333,106.529 108.868,105.571 110.049 C 100.363 116.468,100.113 121.829,104.910 124.259 C 105.937 124.780,107.623 125.966,108.657 126.895 C 109.692 127.825,111.086 128.860,111.757 129.195 C 113.287 129.960,114.867 130.866,115.122 131.124 C 115.847 131.858,118.673 133.756,120.167 134.513 C 121.148 135.011,122.812 136.208,123.864 137.172 C 124.917 138.137,125.935 138.927,126.127 138.927 C 126.319 138.927,127.204 139.278,128.092 139.707 C 130.582 140.910,135.725 140.046,137.668 138.097 C 138.038 137.725,139.122 136.620,140.075 135.640 C 141.029 134.660,142.126 133.758,142.514 133.635 C 142.902 133.512,143.220 133.228,143.220 133.005 C 143.220 132.783,144.580 131.221,146.244 129.535 C 150.159 125.568,153.139 122.051,154.655 119.610 C 155.321 118.537,156.440 116.974,157.141 116.138 C 157.842 115.302,158.621 113.985,158.872 113.212 C 159.377 111.652,160.399 110.061,162.028 108.296 C 162.620 107.654,163.298 106.600,163.534 105.955 C 164.415 103.542,165.532 101.324,167.015 99.041 C 167.856 97.748,168.661 96.140,168.804 95.467 C 168.948 94.794,169.204 94.068,169.373 93.854 C 170.033 93.014,171.317 88.370,171.317 86.820 C 171.317 84.611,166.236 79.950,161.561 77.870 C 160.810 77.536,159.171 76.386,157.920 75.314 C 156.668 74.243,155.351 73.355,154.993 73.342 C 154.635 73.328,153.112 72.454,151.610 71.399 C 150.107 70.344,148.123 69.128,147.201 68.697 C 146.278 68.266,144.754 67.385,143.813 66.738 C 141.342 65.037,139.956 65.154,137.025 67.311 M144.512 70.427 C 145.626 70.957,147.003 71.826,147.572 72.359 C 148.142 72.892,149.506 73.761,150.603 74.290 C 151.701 74.820,153.781 76.118,155.226 77.175 C 156.671 78.231,158.644 79.400,159.610 79.771 C 160.576 80.142,162.068 81.103,162.927 81.906 C 163.785 82.709,165.132 83.836,165.919 84.410 C 168.387 86.210,168.432 90.743,166.020 94.517 C 164.405 97.045,162.341 101.244,162.341 102.005 C 162.341 102.313,161.626 103.469,160.752 104.575 C 159.239 106.489,157.268 109.958,157.268 110.708 C 157.268 110.900,156.395 112.091,155.328 113.352 C 154.262 114.614,153.043 116.363,152.620 117.238 C 152.197 118.113,151.261 119.444,150.540 120.195 C 149.819 120.946,148.629 122.439,147.895 123.512 C 145.546 126.949,136.052 136.009,133.560 137.191 C 131.556 138.142,129.555 137.625,126.611 135.397 C 125.238 134.358,123.363 133.175,122.446 132.769 C 121.528 132.363,120.076 131.367,119.218 130.554 C 118.360 129.741,116.780 128.653,115.707 128.136 C 114.634 127.618,112.979 126.504,112.029 125.660 C 111.080 124.815,109.411 123.701,108.322 123.183 C 103.923 121.092,102.946 116.372,106.373 113.759 C 107.073 113.225,108.180 111.864,108.833 110.735 C 109.485 109.606,110.421 108.208,110.912 107.628 C 112.745 105.463,113.255 104.737,114.144 103.024 C 114.645 102.059,115.702 100.569,116.493 99.714 C 117.284 98.859,118.289 97.454,118.727 96.592 C 119.165 95.730,120.350 94.119,121.359 93.011 C 122.368 91.904,123.497 90.360,123.868 89.579 C 124.238 88.799,125.306 87.221,126.242 86.072 C 127.177 84.924,128.328 83.219,128.799 82.285 C 129.271 81.350,130.211 80.059,130.889 79.415 C 131.567 78.771,132.716 77.278,133.442 76.098 C 137.095 70.154,140.391 68.466,144.512 70.427 M284.281 195.095 C 282.651 195.486,279.600 197.284,277.268 199.228 C 274.608 201.446,273.920 201.756,271.661 201.756 C 269.123 201.756,267.917 202.244,265.934 204.072 C 263.253 206.543,260.123 207.245,257.030 206.070 C 254.662 205.169,249.206 206.183,247.342 207.871 C 246.180 208.922,243.505 213.852,243.053 215.776 C 242.329 218.852,241.429 220.613,239.471 222.782 C 234.975 227.760,234.727 233.761,238.827 238.348 L 240.827 240.585 240.623 243.512 C 240.511 245.122,240.309 247.447,240.174 248.678 C 239.840 251.726,241.409 256.027,243.308 257.273 C 245.268 258.557,246.125 260.167,246.371 263.024 C 246.751 267.443,248.435 270.379,251.851 272.577 C 256.157 275.348,256.787 277.940,253.891 280.964 C 253.165 281.721,252.179 283.132,251.700 284.098 C 250.278 286.965,242.368 295.365,239.895 296.634 C 239.086 297.050,237.945 297.936,237.358 298.605 C 236.772 299.273,235.055 300.388,233.543 301.083 C 232.031 301.778,229.836 302.954,228.665 303.696 C 226.287 305.204,224.384 305.947,222.869 305.960 C 217.338 306.006,215.347 313.055,219.731 317.068 C 220.431 317.709,221.337 318.987,221.744 319.908 C 222.152 320.829,223.418 322.587,224.559 323.815 C 225.700 325.044,227.136 326.663,227.751 327.415 C 228.366 328.166,229.566 329.395,230.419 330.146 C 231.271 330.898,232.503 332.097,233.155 332.813 C 234.363 334.137,238.515 337.171,239.119 337.171 C 239.302 337.171,240.146 337.886,240.994 338.761 C 243.028 340.858,244.714 341.556,247.885 341.612 C 250.997 341.667,251.227 341.457,252.512 337.366 C 253.323 334.783,254.966 331.354,255.596 330.927 C 255.755 330.820,256.342 329.448,256.902 327.880 C 257.602 325.918,258.480 324.404,259.715 323.031 C 260.702 321.933,261.753 320.452,262.051 319.740 C 262.348 319.028,263.743 317.317,265.149 315.938 C 266.556 314.558,267.709 313.284,267.710 313.105 C 267.711 312.927,268.370 312.346,269.173 311.815 C 269.977 311.284,271.512 310.071,272.585 309.121 C 276.625 305.544,280.878 304.346,284.346 305.810 C 286.355 306.658,289.832 307.481,291.475 307.498 C 294.375 307.529,298.911 310.917,301.027 314.634 C 301.607 315.654,302.240 316.488,302.433 316.488 C 302.627 316.488,303.805 317.427,305.051 318.575 C 308.599 321.844,313.010 322.718,316.186 320.782 C 317.682 319.870,319.104 319.780,319.969 320.544 C 324.864 324.869,331.690 325.698,335.907 322.479 C 336.835 321.770,337.811 321.054,338.076 320.888 C 338.883 320.381,341.051 317.417,341.632 316.026 C 342.339 314.334,343.162 313.615,346.198 312.035 C 350.476 309.810,352.336 305.932,351.550 300.878 C 350.505 294.153,351.160 292.848,359.117 285.814 C 361.771 283.467,362.495 280.209,361.773 273.867 C 361.421 270.784,361.450 269.396,361.926 266.434 C 362.756 261.280,361.883 257.941,358.978 255.157 C 356.792 253.062,356.540 252.523,355.938 248.644 C 355.440 245.434,354.531 243.389,352.963 241.951 C 351.095 240.238,350.895 239.199,351.338 233.492 C 351.991 225.075,348.345 220.099,341.522 220.098 C 339.499 220.098,337.619 219.271,335.860 217.609 C 333.619 215.492,330.386 212.853,329.147 212.129 C 328.490 211.745,327.477 210.680,326.896 209.761 C 322.972 203.559,319.488 201.473,313.831 201.941 C 303.767 202.772,298.967 202.042,296.037 199.235 C 295.093 198.330,293.732 197.348,293.014 197.053 C 292.295 196.758,291.388 196.222,290.997 195.863 C 289.832 194.789,286.937 194.458,284.281 195.095 M166.550 201.177 C 164.252 203.645,162.732 206.386,162.732 208.062 C 162.732 208.531,160.742 213.152,160.406 213.463 C 159.139 214.638,158.277 218.929,159.194 219.496 C 160.060 220.032,162.656 215.224,163.506 211.512 C 164.142 208.734,165.868 205.499,167.822 203.425 C 170.645 200.428,171.818 201.444,175.125 209.756 C 176.822 214.022,181.526 214.925,183.685 211.399 C 184.210 210.541,186.854 208.707,188.997 207.714 C 190.109 207.199,191.547 206.388,192.192 205.912 C 195.337 203.593,204.059 201.793,206.345 202.991 C 207.391 203.539,208.210 206.092,207.669 207.120 C 207.471 207.497,207.187 208.771,207.038 209.951 C 206.580 213.574,206.037 215.140,204.532 217.171 C 203.736 218.244,202.619 220.088,202.049 221.268 C 201.479 222.449,199.950 224.534,198.652 225.901 C 196.015 228.680,195.643 230.150,197.011 232.392 C 197.704 233.529,198.339 233.925,202.243 235.655 C 207.971 238.194,208.530 239.542,205.025 242.359 C 201.548 245.154,197.950 246.693,193.624 247.236 C 191.153 247.546,187.730 250.209,188.543 251.189 C 189.623 252.490,192.324 251.698,194.884 249.329 C 195.663 248.609,196.930 248.081,198.981 247.622 C 203.616 246.587,204.123 246.315,206.927 243.372 C 210.346 239.782,210.353 239.341,207.038 235.960 C 205.639 234.533,204.032 233.274,203.429 233.132 C 198.242 231.911,197.196 229.899,200.301 227.119 C 201.371 226.162,202.216 224.940,202.658 223.709 C 203.075 222.550,204.037 221.114,205.089 220.082 C 206.046 219.143,206.829 218.177,206.829 217.936 C 206.829 217.695,207.630 215.142,208.609 212.261 C 211.209 204.613,211.265 204.120,209.725 202.390 C 209.033 201.612,208.296 200.976,208.086 200.976 C 207.877 200.976,207.487 200.712,207.220 200.390 C 206.553 199.587,204.683 199.657,202.264 200.576 C 201.148 201.000,198.953 201.629,197.386 201.972 C 193.521 202.820,191.421 203.632,190.145 204.772 C 189.555 205.298,187.932 206.248,186.537 206.883 C 185.106 207.533,183.489 208.631,182.829 209.399 C 180.515 212.091,177.178 210.890,177.169 207.362 C 177.168 206.961,176.472 205.756,175.624 204.683 C 174.775 203.610,173.614 201.826,173.044 200.720 C 171.370 197.472,169.904 197.575,166.550 201.177 M288.641 198.575 C 289.592 198.864,291.497 200.252,293.210 201.905 C 294.701 203.343,297.174 204.434,299.574 204.711 C 302.065 204.999,306.319 206.087,306.575 206.501 C 306.995 207.180,309.805 206.811,311.472 205.858 C 314.345 204.216,318.875 204.770,319.885 206.888 C 320.396 207.959,327.852 215.561,329.951 217.152 C 331.024 217.965,332.768 219.416,333.826 220.376 C 336.122 222.459,337.098 222.875,339.696 222.877 C 343.247 222.881,344.386 223.407,346.495 226.014 C 349.082 229.210,349.176 229.995,347.528 234.607 C 345.977 238.944,346.060 239.432,348.784 242.011 C 350.382 243.524,350.735 244.385,352.042 249.951 C 352.972 253.914,353.901 255.405,356.687 257.406 C 359.803 259.645,360.972 264.949,358.864 267.279 C 357.650 268.620,357.629 271.170,358.805 274.574 C 360.428 279.276,360.214 279.887,355.172 284.921 C 346.616 293.461,346.435 293.818,348.088 298.834 C 348.737 300.804,349.268 302.914,349.268 303.523 C 349.268 305.270,345.466 309.621,343.019 310.674 C 340.947 311.565,339.347 313.238,336.465 317.525 C 333.257 322.296,326.784 322.434,321.767 317.839 C 320.079 316.293,317.057 315.937,315.410 317.091 C 312.007 319.475,306.501 317.010,302.729 311.415 C 299.847 307.139,298.543 306.306,292.309 304.752 C 290.708 304.353,288.337 303.516,287.040 302.892 C 282.153 300.539,279.023 300.198,276.915 301.790 C 276.251 302.292,274.302 303.456,272.585 304.378 C 270.868 305.300,269.112 306.362,268.683 306.738 C 268.254 307.114,267.376 307.690,266.732 308.019 C 266.088 308.348,264.420 309.680,263.024 310.978 C 261.629 312.277,260.354 313.345,260.189 313.353 C 259.680 313.375,258.344 315.855,258.343 316.780 C 258.342 317.263,258.120 317.659,257.849 317.659 C 257.018 317.659,254.551 320.109,253.725 321.756 C 253.294 322.615,252.620 323.599,252.227 323.944 C 250.035 325.868,249.023 328.042,248.542 331.858 C 248.069 335.611,246.636 336.772,244.878 334.829 C 244.489 334.399,243.232 333.604,242.085 333.061 C 240.938 332.519,240.000 331.860,240.000 331.597 C 240.000 331.185,239.331 330.399,237.405 328.548 C 236.336 327.521,235.616 326.735,234.438 325.308 C 233.748 324.471,232.603 323.544,231.895 323.248 C 231.186 322.952,230.454 322.309,230.268 321.820 C 230.082 321.330,229.037 320.326,227.945 319.587 C 224.136 317.010,224.120 308.610,227.928 310.648 C 228.522 310.966,228.683 310.924,228.683 310.453 C 228.683 310.070,229.044 309.854,229.684 309.854 C 231.070 309.854,231.873 309.358,234.110 307.121 C 235.599 305.632,236.479 305.091,237.925 304.774 C 240.674 304.173,241.900 303.504,244.295 301.298 C 245.474 300.211,246.659 299.321,246.927 299.319 C 247.195 299.318,247.415 299.149,247.415 298.945 C 247.415 298.740,247.810 298.168,248.293 297.674 C 248.776 297.179,249.663 296.118,250.264 295.315 C 250.865 294.511,252.226 292.861,253.288 291.647 C 254.350 290.433,255.220 289.235,255.220 288.985 C 255.220 288.736,255.940 287.578,256.821 286.412 C 261.513 280.203,261.120 274.252,255.852 271.734 C 252.599 270.180,250.680 267.372,249.769 262.829 C 249.511 261.541,249.212 260.049,249.106 259.514 C 248.999 258.978,247.728 257.397,246.281 256.001 C 242.460 252.317,242.268 251.500,243.474 244.077 C 244.037 240.617,243.483 238.804,241.032 236.078 C 239.034 233.855,238.285 231.605,238.919 229.721 C 239.475 228.065,242.917 223.419,244.335 222.409 C 245.803 221.364,246.634 219.733,246.634 217.899 C 246.634 210.903,252.247 206.377,257.459 209.171 C 260.255 210.669,264.843 209.743,267.122 207.220 C 268.290 205.926,270.608 204.878,272.301 204.878 C 274.332 204.878,278.748 202.644,281.060 200.446 C 282.072 199.484,283.214 198.615,283.597 198.515 C 284.626 198.248,287.681 198.284,288.641 198.575 " stroke="none" fill="#a5b5b6" fill-rule="evenodd"></path><path id="path5" d="M283.759 49.963 C 283.251 50.176,281.991 51.182,280.959 52.199 C 276.978 56.122,274.912 58.008,272.945 59.512 C 261.823 68.018,258.478 73.794,261.757 78.832 C 265.001 83.819,266.749 86.356,268.179 88.158 C 269.100 89.317,270.276 90.898,270.792 91.670 C 271.308 92.442,272.665 94.127,273.808 95.415 C 276.441 98.381,280.989 103.321,281.756 104.046 C 284.752 106.880,286.561 108.452,288.360 109.780 C 289.525 110.641,291.106 111.910,291.873 112.599 C 293.232 113.821,296.383 115.455,300.533 117.091 C 304.486 118.649,305.548 118.051,315.707 108.544 C 326.410 98.529,327.417 96.765,324.337 93.425 C 323.763 92.802,322.427 91.151,321.368 89.756 C 320.310 88.361,318.647 86.372,317.673 85.337 C 316.699 84.301,315.606 82.881,315.243 82.182 C 314.881 81.482,313.957 80.431,313.191 79.847 C 312.425 79.262,311.461 78.124,311.049 77.317 C 310.637 76.510,309.591 75.208,308.724 74.425 C 307.857 73.642,306.675 72.252,306.098 71.337 C 305.520 70.422,304.619 69.337,304.094 68.924 C 303.570 68.512,302.588 67.438,301.912 66.537 C 300.846 65.117,298.391 62.134,293.238 56.000 C 292.517 55.141,291.398 53.699,290.752 52.795 C 288.862 50.150,286.038 49.006,283.759 49.963 M286.425 52.817 C 287.111 53.105,287.877 53.708,288.129 54.158 C 289.119 55.929,291.571 59.316,292.207 59.791 C 292.576 60.067,293.392 60.995,294.019 61.854 C 295.051 63.265,296.194 64.506,302.097 70.626 C 303.089 71.655,304.453 73.299,305.128 74.280 C 305.803 75.260,306.677 76.290,307.071 76.568 C 307.464 76.846,308.094 77.671,308.471 78.402 C 309.258 79.930,309.544 80.314,311.415 82.366 C 312.166 83.190,313.395 84.777,314.146 85.894 C 314.898 87.010,316.127 88.570,316.878 89.361 C 317.629 90.152,318.683 91.387,319.220 92.106 C 319.756 92.825,320.678 93.859,321.268 94.403 C 323.248 96.230,322.760 97.602,318.844 101.220 C 317.886 102.105,315.930 103.971,314.497 105.366 C 306.988 112.674,305.361 114.027,303.536 114.476 C 302.959 114.618,302.394 114.584,302.280 114.400 C 302.167 114.216,301.060 113.747,299.822 113.358 C 298.279 112.872,296.956 112.078,295.615 110.834 C 294.539 109.835,292.868 108.560,291.902 108.001 C 290.937 107.442,289.158 106.049,287.950 104.907 C 286.742 103.764,284.986 102.099,284.047 101.207 C 282.069 99.326,277.932 94.740,277.112 93.520 C 276.803 93.060,275.614 91.602,274.470 90.281 C 273.326 88.961,272.390 87.692,272.390 87.462 C 272.390 87.232,271.370 86.001,270.122 84.727 C 268.736 83.309,267.647 81.782,267.322 80.794 C 267.029 79.906,266.453 78.794,266.043 78.322 C 262.389 74.118,263.151 72.430,272.595 63.805 C 274.475 62.088,276.471 60.184,277.031 59.575 C 277.591 58.965,278.576 57.999,279.220 57.428 C 279.863 56.857,281.124 55.660,282.020 54.767 C 283.316 53.477,284.663 52.409,285.126 52.305 C 285.155 52.298,285.740 52.529,286.425 52.817 M137.074 71.707 C 135.802 72.941,134.167 74.917,133.442 76.098 C 132.716 77.278,131.567 78.771,130.889 79.415 C 130.211 80.059,129.271 81.350,128.799 82.285 C 128.328 83.219,127.177 84.924,126.242 86.072 C 125.306 87.221,124.238 88.799,123.868 89.579 C 123.497 90.360,122.368 91.904,121.359 93.011 C 120.350 94.119,119.165 95.730,118.727 96.592 C 118.289 97.454,117.284 98.859,116.493 99.714 C 115.702 100.569,114.645 102.059,114.144 103.024 C 113.255 104.737,112.745 105.463,110.912 107.628 C 110.421 108.208,109.485 109.606,108.833 110.735 C 108.180 111.864,107.073 113.225,106.373 113.759 C 102.946 116.372,103.923 121.092,108.322 123.183 C 109.411 123.701,111.080 124.815,112.029 125.660 C 112.979 126.504,114.634 127.618,115.707 128.136 C 116.780 128.653,118.360 129.741,119.218 130.554 C 120.076 131.367,121.528 132.363,122.446 132.769 C 123.363 133.175,125.238 134.358,126.611 135.397 C 129.555 137.625,131.556 138.142,133.560 137.191 C 136.052 136.009,145.546 126.949,147.895 123.512 C 148.629 122.439,149.819 120.946,150.540 120.195 C 151.261 119.444,152.197 118.113,152.620 117.238 C 153.043 116.363,154.262 114.614,155.328 113.352 C 156.395 112.091,157.268 110.900,157.268 110.708 C 157.268 109.958,159.239 106.489,160.752 104.575 C 161.626 103.469,162.341 102.313,162.341 102.005 C 162.341 101.244,164.405 97.045,166.020 94.517 C 168.432 90.743,168.387 86.210,165.919 84.410 C 165.132 83.836,163.785 82.709,162.927 81.906 C 162.068 81.103,160.576 80.142,159.610 79.771 C 158.644 79.400,156.671 78.231,155.226 77.175 C 153.781 76.118,151.701 74.820,150.603 74.290 C 149.506 73.761,148.142 72.892,147.572 72.359 C 143.845 68.872,140.228 68.648,137.074 71.707 " stroke="none" fill="#5373a4" fill-rule="evenodd"></path></g></svg>